<?xml version="1.0" encoding="UTF-8" standalone="no"?>
<svg
   enable-background="new"
   version="1.1"
   viewBox="0 0 320 240"
   id="svg6"
   sodipodi:docname="laptop-symbolic.svg"
   xml:space="preserve"
   inkscape:version="1.2.2 (b0a8486541, 2022-12-01)"
   width="320"
   height="240"
   xmlns:inkscape="http://www.inkscape.org/namespaces/inkscape"
   xmlns:sodipodi="http://sodipodi.sourceforge.net/DTD/sodipodi-0.dtd"
   xmlns="http://www.w3.org/2000/svg"
   xmlns:svg="http://www.w3.org/2000/svg"><defs
     id="defs10" /><sodipodi:namedview
     id="namedview8"
     pagecolor="#ffffff"
     bordercolor="#000000"
     borderopacity="0.25"
     inkscape:showpageshadow="2"
     inkscape:pageopacity="0.0"
     inkscape:pagecheckerboard="0"
     inkscape:deskcolor="#d1d1d1"
     showgrid="false"
     inkscape:zoom="0.75456818"
     inkscape:cx="132.52613"
     inkscape:cy="119.27352"
     inkscape:window-width="1440"
     inkscape:window-height="786"
     inkscape:window-x="0"
     inkscape:window-y="28"
     inkscape:window-maximized="1"
     inkscape:current-layer="svg6" /><g
     id="g1861"
     transform="matrix(20,0,0,20,0,-40)"><path
       d="M 2,2 C 0.892,2 0,2.892 0,4 v 7 c 0,1.108 0.892,2 2,2 h 12 c 1.108,0 2,-0.892 2,-2 V 4 C 16,2.892 15.108,2 14,2 Z m 0,1 h 12 c 0.554,0 1,0.446 1,1 v 7 c 0,0.554 -0.446,1 -1,1 H 2 C 1.446,12 1,11.554 1,11 V 4 C 1,3.446 1.446,3 2,3 Z"
       fill="#363636"
       id="path2"
       style="fill:#d5d5d5;fill-opacity:1" /><path
       d="M 0.5,13 C 0.223,13 0,13.223 0,13.5 0,13.777 0.223,14 0.5,14 h 15 C 15.777,14 16,13.777 16,13.5 16,13.223 15.777,13 15.5,13 h -4.5254 c -0.0557,0.21543 -0.24129,0.37695 -0.47461,0.37695 h -5 C 5.26667,13.37695 5.08108,13.21543 5.02538,13 h -4.5254 z"
       fill="#363636"
       stroke-linecap="round"
       stroke-linejoin="round"
       stroke-width="1.5"
       id="path4"
       style="fill:#d5d5d5;fill-opacity:1" /><g
       id="g12765"
       transform="translate(0.03933911,0.7852538)"
       style="fill:#d5d5d5;fill-opacity:1"><g
         id="g11761"
         style="fill:#d5d5d5;fill-opacity:1"><path
           color="#000000"
           d="m 3.948604,4.119875 a 0.66721848,0.66721848 0 1 0 0,1.3344367 0.66721848,0.66721848 0 0 0 0,-1.3344367 z m 0.3317982,0.3605837 c 0.086929,-0.00248 0.131538,0.1030372 0.069296,0.1636592 L 3.8533823,5.1404333 3.5762961,4.8633468 C 3.4826947,4.773558 3.6211905,4.6349674 3.7110742,4.7285687 L 3.8533823,4.8708766 4.2149195,4.5093398 a 0.09531691,0.09531691 0 0 1 0.065483,-0.028881 z"
           fill="#363636"
           overflow="visible"
           style="fill:#d5d5d5;fill-opacity:1;stroke-width:0.0953168;marker:none"
           id="path8314" /><g
           id="g10980"
           transform="matrix(1.0443442,0,0,0.66721848,-0.708054,1.8291273)"
           style="fill:#d5d5d5;fill-opacity:1"><rect
             style="fill:#d5d5d5;fill-opacity:1;stroke:none;stroke-width:0.525907;stroke-linecap:square;stroke-linejoin:miter;stroke-dasharray:none;paint-order:fill markers stroke"
             id="rect10196"
             width="7.4200382"
             height="0.58474535"
             x="5.361578"
             y="3.7870934"
             rx="34.394005"
             ry="0" /><rect
             style="fill:#d5d5d5;fill-opacity:1;stroke:none;stroke-width:0.425709;stroke-linecap:square;stroke-linejoin:miter;stroke-dasharray:none"
             id="rect10976"
             width="4.8625884"
             height="0.58474535"
             x="5.361578"
             y="4.4947205"
             rx="22.53949"
             ry="0" /></g></g><g
         id="g11822"
         transform="translate(0,2.0456882)"
         style="fill:#d5d5d5;fill-opacity:1"><path
           color="#000000"
           d="m 3.948604,4.119875 a 0.66721848,0.66721848 0 1 0 0,1.3344367 0.66721848,0.66721848 0 0 0 0,-1.3344367 z m 0.3317982,0.3605837 c 0.086929,-0.00248 0.131538,0.1030372 0.069296,0.1636592 L 3.8533823,5.1404333 3.5762961,4.8633468 C 3.4826947,4.773558 3.6211905,4.6349674 3.7110742,4.7285687 L 3.8533823,4.8708766 4.2149195,4.5093398 a 0.09531691,0.09531691 0 0 1 0.065483,-0.028881 z"
           fill="#363636"
           overflow="visible"
           style="fill:#d5d5d5;fill-opacity:1;stroke-width:0.0953168;marker:none"
           id="path11814" /><g
           id="g11820"
           transform="matrix(1.0443442,0,0,0.66721848,-0.708054,1.8291273)"
           style="fill:#d5d5d5;fill-opacity:1"><rect
             style="fill:#d5d5d5;fill-opacity:1;stroke:none;stroke-width:0.525907;stroke-linecap:square;stroke-linejoin:miter;stroke-dasharray:none;paint-order:fill markers stroke"
             id="rect11816"
             width="7.4200382"
             height="0.58474535"
             x="5.361578"
             y="3.7870934"
             rx="34.394005"
             ry="0" /><rect
             style="fill:#d5d5d5;fill-opacity:1;stroke:none;stroke-width:0.425709;stroke-linecap:square;stroke-linejoin:miter;stroke-dasharray:none"
             id="rect11818"
             width="4.8625884"
             height="0.58474535"
             x="5.361578"
             y="4.4947205"
             rx="22.53949"
             ry="0" /></g></g><g
         id="g11832"
         transform="translate(0,3.8553057)"
         style="fill:#d5d5d5;fill-opacity:1"><path
           color="#000000"
           d="m 3.948604,4.119875 a 0.66721848,0.66721848 0 1 0 0,1.3344367 0.66721848,0.66721848 0 0 0 0,-1.3344367 z m 0.3317982,0.3605837 c 0.086929,-0.00248 0.131538,0.1030372 0.069296,0.1636592 L 3.8533823,5.1404333 3.5762961,4.8633468 C 3.4826947,4.773558 3.6211905,4.6349674 3.7110742,4.7285687 L 3.8533823,4.8708766 4.2149195,4.5093398 a 0.09531691,0.09531691 0 0 1 0.065483,-0.028881 z"
           fill="#363636"
           overflow="visible"
           style="fill:#d5d5d5;fill-opacity:1;stroke-width:0.0953168;marker:none"
           id="path11824" /><g
           id="g11830"
           transform="matrix(1.0443442,0,0,0.66721848,-0.708054,1.8291273)"
           style="fill:#d5d5d5;fill-opacity:1"><rect
             style="fill:#d5d5d5;fill-opacity:1;stroke:none;stroke-width:0.525907;stroke-linecap:square;stroke-linejoin:miter;stroke-dasharray:none;paint-order:fill markers stroke"
             id="rect11826"
             width="7.4200382"
             height="0.58474535"
             x="5.361578"
             y="3.7870934"
             rx="34.394005"
             ry="0" /><rect
             style="fill:#d5d5d5;fill-opacity:1;stroke:none;stroke-width:0.425709;stroke-linecap:square;stroke-linejoin:miter;stroke-dasharray:none"
             id="rect11828"
             width="4.8625884"
             height="0.58474535"
             x="5.361578"
             y="4.4947205"
             rx="22.53949"
             ry="0" /></g></g></g></g></svg>
