<?xml version="1.0" encoding="UTF-8" standalone="no"?>
<!-- Created with Inkscape (http://www.inkscape.org/) -->

<svg
   width="39.946838mm"
   height="127.46174mm"
   viewBox="0 0 39.946838 127.46174"
   version="1.1"
   id="svg5"
   inkscape:version="1.4.2 (ebf0e940d0, 2025-05-08)"
   sodipodi:docname="base.svg"
   xml:space="preserve"
   inkscape:export-filename="timemachine/src/icons/systemtrayiconrestore.png"
   inkscape:export-xdpi="96"
   inkscape:export-ydpi="96"
   xmlns:inkscape="http://www.inkscape.org/namespaces/inkscape"
   xmlns:sodipodi="http://sodipodi.sourceforge.net/DTD/sodipodi-0.dtd"
   xmlns:xlink="http://www.w3.org/1999/xlink"
   xmlns="http://www.w3.org/2000/svg"
   xmlns:svg="http://www.w3.org/2000/svg"><sodipodi:namedview
     id="namedview7"
     pagecolor="#ffffff"
     bordercolor="#666666"
     borderopacity="1.0"
     inkscape:pageshadow="2"
     inkscape:pageopacity="0.0"
     inkscape:pagecheckerboard="0"
     inkscape:document-units="mm"
     showgrid="false"
     inkscape:zoom="1.6923349"
     inkscape:cx="88.339489"
     inkscape:cy="28.067731"
     inkscape:window-width="1920"
     inkscape:window-height="1005"
     inkscape:window-x="0"
     inkscape:window-y="0"
     inkscape:window-maximized="1"
     inkscape:current-layer="g11"
     inkscape:showpageshadow="2"
     inkscape:deskcolor="#d1d1d1" /><defs
     id="defs2"><linearGradient
       id="swatch22"
       inkscape:swatch="solid"><stop
         style="stop-color:#00ff00;stop-opacity:0;"
         offset="0"
         id="stop22" /></linearGradient><linearGradient
       id="unchecked_highlight"
       inkscape:swatch="solid"><stop
         style="stop-color:#5f5f5f;stop-opacity:1;"
         offset="0"
         id="stop1645" /></linearGradient><linearGradient
       id="dark_unchecked_bg"
       inkscape:swatch="gradient"><stop
         id="stop1615"
         offset="0"
         style="stop-color:#6a6a6a;stop-opacity:1" /><stop
         id="stop1617"
         offset="1"
         style="stop-color:#545454;stop-opacity:1" /></linearGradient><style
       id="current-color-scheme"
       type="text/css">.ColorScheme-Text {
        color:#363636;
      }</style><linearGradient
       gradientUnits="userSpaceOnUse"
       y2="508.79999"
       y1="537.79999"
       x2="0"
       id="c-70-2"
       gradientTransform="matrix(2.5329816,0,0,2.5329816,-970.19736,-1263.699)"><stop
         id="stop4761-3"
         offset="0"
         stop-color="#026ddc"
         style="stop-color:#027bf9;stop-opacity:1" /><stop
         id="stop4763-7"
         offset="1"
         stop-color="#28b0fd"
         style="stop-color:#37b7ff;stop-opacity:1" /></linearGradient><linearGradient
       id="linearGradient6987"
       inkscape:swatch="solid"><stop
         id="stop6985"
         offset="0"
         style="stop-color:#77d2fb;stop-opacity:1;" /></linearGradient><linearGradient
       inkscape:collect="always"
       xlink:href="#c-70-2"
       id="linearGradient1"
       gradientUnits="userSpaceOnUse"
       gradientTransform="matrix(0.26458333,0,0,0.26458333,9.7445245,138.03886)"
       x1="66.516502"
       y1="120.59479"
       x2="56.501717"
       y2="14.934105" /><linearGradient
       inkscape:collect="always"
       xlink:href="#c-70-2"
       id="linearGradient24"
       gradientUnits="userSpaceOnUse"
       gradientTransform="matrix(0.26458333,0,0,0.26458333,9.7445245,143.68098)"
       x1="66.516502"
       y1="120.59479"
       x2="56.501717"
       y2="14.934105" /><linearGradient
       inkscape:collect="always"
       xlink:href="#c-70-2"
       id="linearGradient93"
       gradientUnits="userSpaceOnUse"
       gradientTransform="matrix(0.26458333,0,0,0.26458333,9.7445245,188.22183)"
       x1="66.516502"
       y1="120.59479"
       x2="56.501717"
       y2="14.934105" /><filter
       id="filter101"
       height="1"
       width="1"
       x="0"
       y="0"><feColorMatrix
         color-interpolation-filters="sRGB"
         values="0 0 0 0 1 0 0 0 0 1 0 0 0 0 1 0 0 0 1 0"
         id="feColorMatrix101" /></filter><mask
       id="mask101"><g
         filter="url(#a)"
         id="g101"
         style="filter:url(#a-75)"><path
           d="M -1.6,-1.6 H 17.6 V 17.6 H -1.6 Z"
           fill-opacity="0.5"
           id="path101" /></g></mask><clipPath
       id="clipPath102"><path
         d="M 0,0 H 1600 V 1200 H 0 Z"
         id="path102" /></clipPath><mask
       id="mask103"><g
         filter="url(#a)"
         id="g103"
         style="filter:url(#a-75)"><path
           d="M -1.6,-1.6 H 17.6 V 17.6 H -1.6 Z"
           fill-opacity="0.7"
           id="path103" /></g></mask><clipPath
       id="clipPath104"><path
         d="M 0,0 H 1600 V 1200 H 0 Z"
         id="path104" /></clipPath><mask
       id="mask105"><g
         filter="url(#a)"
         id="g105"
         style="filter:url(#a-75)"><path
           d="M -1.6,-1.6 H 17.6 V 17.6 H -1.6 Z"
           fill-opacity="0.35"
           id="path105" /></g></mask><clipPath
       id="clipPath106"><path
         d="M 0,0 H 1600 V 1200 H 0 Z"
         id="path106" /></clipPath><filter
       id="filter26"
       height="1"
       width="1"
       x="0"
       y="0"><feColorMatrix
         color-interpolation-filters="sRGB"
         values="0 0 0 0 1 0 0 0 0 1 0 0 0 0 1 0 0 0 1 0"
         id="feColorMatrix26" /></filter><mask
       id="mask26"><g
         filter="url(#a)"
         id="g26"
         style="filter:url(#a-75)"><path
           d="M -1.6,-1.6 H 17.6 V 17.6 H -1.6 Z"
           fill-opacity="0.5"
           id="path26" /></g></mask><clipPath
       id="clipPath29"><path
         d="M 0,0 H 1600 V 1200 H 0 Z"
         id="path29" /></clipPath><mask
       id="mask38"><g
         filter="url(#a)"
         id="g38"
         style="filter:url(#a-75)"><path
           d="M -1.6,-1.6 H 17.6 V 17.6 H -1.6 Z"
           fill-opacity="0.7"
           id="path36" /></g></mask><clipPath
       id="clipPath38"><path
         d="M 0,0 H 1600 V 1200 H 0 Z"
         id="path38" /></clipPath><mask
       id="mask39"><g
         filter="url(#a)"
         id="g39"
         style="filter:url(#a-75)"><path
           d="M -1.6,-1.6 H 17.6 V 17.6 H -1.6 Z"
           fill-opacity="0.35"
           id="path39" /></g></mask><clipPath
       id="clipPath40"><path
         d="M 0,0 H 1600 V 1200 H 0 Z"
         id="path40" /></clipPath><linearGradient
       inkscape:collect="always"
       xlink:href="#c-70-2"
       id="linearGradient11"
       gradientUnits="userSpaceOnUse"
       gradientTransform="matrix(0.26458333,0,0,0.26458333,9.7445245,138.03886)"
       x1="66.516502"
       y1="120.59479"
       x2="56.501717"
       y2="14.934105" /></defs><g
     inkscape:label="Layer 1"
     inkscape:groupmode="layer"
     id="layer1"
     transform="translate(-10.741408,-100.11377)"><filter
       id="a-6"
       height="1"
       width="1"
       x="0"
       y="0"><feColorMatrix
         color-interpolation-filters="sRGB"
         values="0 0 0 0 1 0 0 0 0 1 0 0 0 0 1 0 0 0 1 0"
         id="feColorMatrix1" /></filter><mask
       id="b-29"><g
         filter="url(#a)"
         id="g1"
         style="filter:url(#a-6)"><path
           d="M -1.6,-1.6 H 17.6 V 17.6 H -1.6 Z"
           fill-opacity="0.5"
           id="path1-1" /></g></mask><clipPath
       id="c-2"><path
         d="M 0,0 H 1600 V 1200 H 0 Z"
         id="path2-7" /></clipPath><mask
       id="d-0"><g
         filter="url(#a)"
         id="g3"
         style="filter:url(#a-6)"><path
           d="M -1.6,-1.6 H 17.6 V 17.6 H -1.6 Z"
           fill-opacity="0.7"
           id="path3-9" /></g></mask><clipPath
       id="e-360"><path
         d="M 0,0 H 1600 V 1200 H 0 Z"
         id="path4-6" /></clipPath><mask
       id="f-2"><g
         filter="url(#a)"
         id="g5"
         style="filter:url(#a-6)"><path
           d="M -1.6,-1.6 H 17.6 V 17.6 H -1.6 Z"
           fill-opacity="0.35"
           id="path5-6" /></g></mask><clipPath
       id="g-1"><path
         d="M 0,0 H 1600 V 1200 H 0 Z"
         id="path6-8" /></clipPath><g
       id="g130"
       transform="translate(0,-38.893646)"
       inkscape:export-filename="systemtrayiconrun.png"
       inkscape:export-xdpi="80.116486"
       inkscape:export-ydpi="80.116486"><circle
         id="circle1"
         cx="26.766029"
         cy="155.03204"
         r="16.024622"
         style="fill:url(#linearGradient1);fill-opacity:1;stroke:none;stroke-width:1.22895;stroke-miterlimit:4;stroke-dasharray:none;stroke-opacity:1"
         inkscape:export-filename="/home/geovanejefferson/Dropbox/python/timemachine/src/icons/backup_150px.png"
         inkscape:export-xdpi="114.48939"
         inkscape:export-ydpi="114.48939" /><g
         fill="#ffffff"
         id="g123"
         style="fill:#ffffff;fill-opacity:1;stroke:none;stroke-opacity:1"
         transform="matrix(0.41755603,0,0,0.41755603,-21.830629,-247.8041)"><path
           d="m 115.1428,966.20062 c 0.45573,-6.25 0.83765,-18.75 1.36719,-18.75 0.57923,0 0.91146,12.23958 1.36719,18.35938 2.99479,3.28775 9.33802,9.50962 8.98437,9.86327 -0.33998,0.33998 -7.8125,-6.3151 -11.71875,-9.47265 z"
           id="path121"
           style="fill:#ffffff;fill-opacity:1;stroke:none;stroke-opacity:1" /><path
           d="m 87.007284,962.45466 h 12.91298 l -6.40691,11.0971 z"
           id="path122"
           style="fill:#ffffff;fill-opacity:1;stroke:none;stroke-opacity:1" /><path
           d="m 116.79515,938.40374 c -14.40817,0 -26.156246,11.79916 -26.156246,26.3125 0,0.42264 0.0115,0.86339 0.0312,1.28125 l 4.96875,-1.28125 c 5e-5,-11.80129 9.440516,-21.28125 21.156296,-21.28125 11.71578,0 21.15625,9.47996 21.15625,21.28125 0,11.80129 -9.44047,21.34375 -21.15625,21.34375 -5.89796,0 -11.19476,-2.43862 -15.03125,-6.34375 0,0 -0.67902,-0.69462 -1.09111,-1.08783 -0.754946,-0.72037 -1.361936,-0.46313 -1.878276,-0.0472 -0.60421,0.48338 -1.13116,0.89515 -1.71811,1.44757 -0.48341,0.39706 -0.76297,1.05697 -0.3125,1.59375 4.805206,5.77177 11.997886,9.46875 20.031246,9.46875 14.40817,0 26.125,-11.86167 26.125,-26.375 0,-14.51334 -11.71683,-26.3125 -26.125,-26.3125 z"
           id="path123"
           style="fill:#ffffff;fill-opacity:1;stroke:none;stroke-opacity:1" /></g><circle
         style="fill:#ffffff;fill-opacity:1;stroke:none;stroke-width:1.104;stroke-dasharray:none;stroke-opacity:1"
         id="path20"
         cx="39.507988"
         cy="166.20721"
         r="11.180256" /><g
         id="g6"
         transform="matrix(0.98867695,0,0,0.98867695,56.038221,-12.871198)"
         style="stroke:none;stroke-opacity:1"><circle
           style="opacity:1;fill:#00bfa5;fill-opacity:1;stroke:none;stroke-width:0.413009;stroke-opacity:1"
           id="circle2"
           cx="-16.719549"
           cy="181.12935"
           r="9.9045486" /><circle
           style="opacity:1;fill:#f9f9f9;fill-opacity:1;stroke:none;stroke-width:0.348143;stroke-opacity:1"
           id="circle5"
           cx="-16.719549"
           cy="181.12935"
           r="8.3489609" /><path
           d="m -16.71955,172.78038 c -4.61069,0 -8.348973,3.73829 -8.348973,8.34898 0,4.61069 3.738283,8.34895 8.348973,8.34895 4.610689,0 8.3489757,-3.73826 8.3489757,-8.34895 0,-4.61069 -3.7382867,-8.34898 -8.3489757,-8.34898 z m 3.302084,6.11496 c 0.66857,0.0489 0.97432,0.86019 0.497353,1.33715 l -3.799437,3.79944 c -0.30573,0.30568 -0.803099,0.30568 -1.108846,0 l -2.270694,-2.20141 c -0.737871,-0.74194 0.37097,-1.85079 1.108849,-1.10885 l 1.716266,1.64698 3.245013,-3.24501 c 0.16306,-0.15896 0.383198,-0.24456 0.611496,-0.22838 z m 0,0"
           fill="#2e3436"
           id="path5"
           style="fill:#85d1c6;fill-opacity:1;stroke:none;stroke-width:1.04362;stroke-opacity:1" /></g></g><g
       id="g7"
       inkscape:export-filename="systemtrayiconerror.png"
       inkscape:export-xdpi="80.116486"
       inkscape:export-ydpi="80.116486"><g
         id="g2"><circle
           id="circle22"
           cx="26.766029"
           cy="160.67416"
           r="16.024622"
           style="fill:url(#linearGradient24);fill-opacity:1;stroke:none;stroke-width:1.22895;stroke-miterlimit:4;stroke-dasharray:none;stroke-opacity:1"
           inkscape:export-filename="/home/geovanejefferson/Dropbox/python/timemachine/src/icons/backup_150px.png"
           inkscape:export-xdpi="114.48939"
           inkscape:export-ydpi="114.48939" /><g
           fill="#ffffff"
           id="g126"
           style="fill:#ffffff;fill-opacity:1;stroke:none;stroke-opacity:1"
           transform="matrix(0.41755603,0,0,0.41755603,-21.830629,-242.16199)"><path
             d="m 115.1428,966.20062 c 0.45573,-6.25 0.83765,-18.75 1.36719,-18.75 0.57923,0 0.91146,12.23958 1.36719,18.35938 2.99479,3.28775 9.33802,9.50962 8.98437,9.86327 -0.33998,0.33998 -7.8125,-6.3151 -11.71875,-9.47265 z"
             id="path124"
             style="fill:#ffffff;fill-opacity:1;stroke:none;stroke-opacity:1" /><path
             d="m 87.007284,962.45466 h 12.91298 l -6.40691,11.0971 z"
             id="path125"
             style="fill:#ffffff;fill-opacity:1;stroke:none;stroke-opacity:1" /><path
             d="m 116.79515,938.40374 c -14.40817,0 -26.156246,11.79916 -26.156246,26.3125 0,0.42264 0.0115,0.86339 0.0312,1.28125 l 4.96875,-1.28125 c 5e-5,-11.80129 9.440516,-21.28125 21.156296,-21.28125 11.71578,0 21.15625,9.47996 21.15625,21.28125 0,11.80129 -9.44047,21.34375 -21.15625,21.34375 -5.89796,0 -11.19476,-2.43862 -15.03125,-6.34375 0,0 -0.67902,-0.69462 -1.09111,-1.08783 -0.754946,-0.72037 -1.361936,-0.46313 -1.878276,-0.0472 -0.60421,0.48338 -1.13116,0.89515 -1.71811,1.44757 -0.48341,0.39706 -0.76297,1.05697 -0.3125,1.59375 4.805206,5.77177 11.997886,9.46875 20.031246,9.46875 14.40817,0 26.125,-11.86167 26.125,-26.375 0,-14.51334 -11.71683,-26.3125 -26.125,-26.3125 z"
             id="path126"
             style="fill:#ffffff;fill-opacity:1;stroke:none;stroke-opacity:1" /></g><circle
           style="fill:#ffffff;fill-opacity:1;stroke:none;stroke-width:1.104;stroke-dasharray:none;stroke-opacity:1"
           id="circle69"
           cx="39.507988"
           cy="171.8544"
           r="11.180256" /></g><circle
         style="fill:#f33d41;fill-opacity:1;stroke-width:0.408337"
         id="circle25"
         cx="39.507915"
         cy="171.84935"
         r="9.7924995" /><circle
         style="fill:#f9f9f9;fill-opacity:1;stroke-width:0.344205"
         id="circle26"
         cx="39.507915"
         cy="171.84935"
         r="8.2545099" /><path
         class="error"
         d="m 39.507916,163.59494 a 8.25441,8.25441 0 1 0 0,16.50882 8.25441,8.25441 0 0 0 0,-16.50882 z m -1.179198,2.35841 h 2.358396 v 7.07993 h -2.358396 z m 0,9.4383 h 2.358396 v 2.3537 h -2.358396 z"
         fill="#f44336"
         id="path63"
         style="fill:#f56769;fill-opacity:1;stroke-width:1.1792" /></g><g
       id="g4"
       inkscape:export-filename="systemtrayiconrestore.png"
       inkscape:export-xdpi="80.116486"
       inkscape:export-ydpi="80.116486"><circle
         id="circle70"
         cx="26.766029"
         cy="205.215"
         r="16.024622"
         style="fill:url(#linearGradient93);fill-opacity:1;stroke:none;stroke-width:1.22895;stroke-miterlimit:4;stroke-dasharray:none;stroke-opacity:1"
         inkscape:export-filename="/home/geovanejefferson/Dropbox/python/timemachine/src/icons/backup_150px.png"
         inkscape:export-xdpi="114.48939"
         inkscape:export-ydpi="114.48939" /><g
         fill="#ffffff"
         id="g129"
         style="fill:#ffffff;fill-opacity:1;stroke:none;stroke-opacity:1"
         transform="matrix(0.41755603,0,0,0.41755603,-21.830629,-197.44595)"><path
           d="m 115.1428,966.20062 c 0.45573,-6.25 0.83765,-18.75 1.36719,-18.75 0.57923,0 0.91146,12.23958 1.36719,18.35938 2.99479,3.28775 9.33802,9.50962 8.98437,9.86327 -0.33998,0.33998 -7.8125,-6.3151 -11.71875,-9.47265 z"
           id="path127"
           style="fill:#ffffff;fill-opacity:1;stroke:none;stroke-opacity:1" /><path
           d="m 87.007284,962.45466 h 12.91298 l -6.40691,11.0971 z"
           id="path128"
           style="fill:#ffffff;fill-opacity:1;stroke:none;stroke-opacity:1" /><path
           d="m 116.79515,938.40374 c -14.40817,0 -26.156246,11.79916 -26.156246,26.3125 0,0.42264 0.0115,0.86339 0.0312,1.28125 l 4.96875,-1.28125 c 5e-5,-11.80129 9.440516,-21.28125 21.156296,-21.28125 11.71578,0 21.15625,9.47996 21.15625,21.28125 0,11.80129 -9.44047,21.34375 -21.15625,21.34375 -5.89796,0 -11.19476,-2.43862 -15.03125,-6.34375 0,0 -0.67902,-0.69462 -1.09111,-1.08783 -0.754946,-0.72037 -1.361936,-0.46313 -1.878276,-0.0472 -0.60421,0.48338 -1.13116,0.89515 -1.71811,1.44757 -0.48341,0.39706 -0.76297,1.05697 -0.3125,1.59375 4.805206,5.77177 11.997886,9.46875 20.031246,9.46875 14.40817,0 26.125,-11.86167 26.125,-26.375 0,-14.51334 -11.71683,-26.3125 -26.125,-26.3125 z"
           id="path129"
           style="fill:#ffffff;fill-opacity:1;stroke:none;stroke-opacity:1" /></g><circle
         style="fill:#ffffff;fill-opacity:1;stroke:none;stroke-width:1.104;stroke-dasharray:none;stroke-opacity:1"
         id="circle71"
         cx="39.507988"
         cy="216.39526"
         r="11.180256" /><circle
         style="fill:#ffa325;fill-opacity:1;stroke-width:0.408337"
         id="circle100"
         cx="39.507915"
         cy="216.3902"
         r="9.7924995" /><circle
         style="fill:#f9f9f9;fill-opacity:1;stroke-width:0.344205"
         id="circle101"
         cx="39.507915"
         cy="216.3902"
         r="8.2545099" /><path
         class="error"
         d="m 39.507916,208.13579 a 8.25441,8.25441 0 1 0 0,16.50882 8.25441,8.25441 0 0 0 0,-16.50882 z m -1.179198,2.35841 h 2.358397 v 7.07993 h -2.358397 z m 0,9.4383 h 2.358397 v 2.3537 h -2.358397 z"
         fill="#f44336"
         id="path113"
         style="fill:#ffc679;fill-opacity:1;stroke-width:1.1792" /></g><g
       id="g11"
       transform="translate(0,-77.2737)"
       inkscape:export-filename="systemtrayiconrun.png"
       inkscape:export-xdpi="80.116486"
       inkscape:export-ydpi="80.116486"><g
         id="g12"
         inkscape:export-filename="io.github.geovanejefferson.timemachine.png"
         inkscape:export-xdpi="405.77557"
         inkscape:export-ydpi="405.77557"><circle
           id="circle3"
           cx="26.766029"
           cy="155.03204"
           r="16.024622"
           style="fill:url(#linearGradient11);fill-opacity:1;stroke:none;stroke-width:1.22895;stroke-miterlimit:4;stroke-dasharray:none;stroke-opacity:1"
           inkscape:export-filename="/home/geovanejefferson/Dropbox/python/timemachine/src/icons/backup_150px.png"
           inkscape:export-xdpi="114.48939"
           inkscape:export-ydpi="114.48939" /><g
           fill="#ffffff"
           id="g8"
           style="fill:#ffffff;fill-opacity:1;stroke:none;stroke-opacity:1"
           transform="matrix(0.41755603,0,0,0.41755603,-21.830629,-247.8041)"><path
             d="m 115.1428,966.20062 c 0.45573,-6.25 0.83765,-18.75 1.36719,-18.75 0.57923,0 0.91146,12.23958 1.36719,18.35938 2.99479,3.28775 9.33802,9.50962 8.98437,9.86327 -0.33998,0.33998 -7.8125,-6.3151 -11.71875,-9.47265 z"
             id="path3"
             style="fill:#ffffff;fill-opacity:1;stroke:none;stroke-opacity:1" /><path
             d="m 87.007284,962.45466 h 12.91298 l -6.40691,11.0971 z"
             id="path4"
             style="fill:#ffffff;fill-opacity:1;stroke:none;stroke-opacity:1" /><path
             d="m 116.79515,938.40374 c -14.40817,0 -26.156246,11.79916 -26.156246,26.3125 0,0.42264 0.0115,0.86339 0.0312,1.28125 l 4.96875,-1.28125 c 5e-5,-11.80129 9.440516,-21.28125 21.156296,-21.28125 11.71578,0 21.15625,9.47996 21.15625,21.28125 0,11.80129 -9.44047,21.34375 -21.15625,21.34375 -5.89796,0 -11.19476,-2.43862 -15.03125,-6.34375 0,0 -0.67902,-0.69462 -1.09111,-1.08783 -0.754946,-0.72037 -1.361936,-0.46313 -1.878276,-0.0472 -0.60421,0.48338 -1.13116,0.89515 -1.71811,1.44757 -0.48341,0.39706 -0.76297,1.05697 -0.3125,1.59375 4.805206,5.77177 11.997886,9.46875 20.031246,9.46875 14.40817,0 26.125,-11.86167 26.125,-26.375 0,-14.51334 -11.71683,-26.3125 -26.125,-26.3125 z"
             id="path6"
             style="fill:#ffffff;fill-opacity:1;stroke:none;stroke-opacity:1" /></g></g></g></g><style
     type="text/css"
     id="style2">
	.st0{fill:#007D5A;}
	.st1{fill:#073C34;}
	.st2{fill:url(#SVGID_1_);}
	.st3{fill:url(#SVGID_2_);}
	.st4{fill:#FFF293;}
	.st5{fill:url(#SVGID_3_);}
</style></svg>
